<svg xmlns="http://www.w3.org/2000/svg" viewBox="0 0 64 64" role="img" aria-labelledby="faviconTitle">
  <title id="faviconTitle">Text Matrix favicon</title>
  <defs>
    <linearGradient id="bg" x1="8" y1="6" x2="56" y2="58" gradientUnits="userSpaceOnUse">
      <stop offset="0" stop-color="#07111f" />
      <stop offset="1" stop-color="#101826" />
    </linearGradient>
    <linearGradient id="accent" x1="20" y1="16" x2="50" y2="48" gradientUnits="userSpaceOnUse">
      <stop offset="0" stop-color="#67e8f9" />
      <stop offset="1" stop-color="#34d399" />
    </linearGradient>
    <linearGradient id="text" x1="16" y1="20" x2="31" y2="44" gradientUnits="userSpaceOnUse">
      <stop offset="0" stop-color="#f8fafc" />
      <stop offset="1" stop-color="#dbeafe" />
    </linearGradient>
  </defs>
  <rect width="64" height="64" rx="16" fill="url(#bg)" />
  <rect x="11" y="11" width="42" height="42" rx="13" fill="#0c1628" stroke="#67e8f9" stroke-opacity="0.14" />
  <path d="M34 18V46" stroke="#38bdf8" stroke-opacity="0.18" stroke-width="1.5" stroke-linecap="round" />
  <rect x="17" y="22" width="11" height="4" rx="2" fill="url(#text)" />
  <rect x="17" y="30" width="14" height="4" rx="2" fill="url(#text)" opacity="0.92" />
  <rect x="17" y="38" width="9" height="4" rx="2" fill="url(#text)" opacity="0.82" />
  <g fill="url(#accent)">
    <rect x="39" y="22" width="6" height="6" rx="1.8" />
    <rect x="47" y="22" width="6" height="6" rx="1.8" opacity="0.56" />
    <rect x="39" y="30" width="6" height="6" rx="1.8" opacity="0.72" />
    <rect x="47" y="30" width="6" height="6" rx="1.8" />
    <rect x="39" y="38" width="6" height="6" rx="1.8" opacity="0.5" />
    <rect x="47" y="38" width="6" height="6" rx="1.8" />
  </g>
  <circle cx="49.5" cy="14.5" r="2" fill="#34d399" opacity="0.9" />
</svg>